<?xml version="1.0" encoding="UTF-8"?>
<svg width="24px" height="24px" viewBox="0 0 24 24" version="1.1" xmlns="http://www.w3.org/2000/svg" xmlns:xlink="http://www.w3.org/1999/xlink">
    <!-- Generator: sketchtool 52.6 (67491) - http://www.bohemiancoding.com/sketch -->
    <title>B2260555-6913-40DB-BC87-B8AA2C598B07</title>
    <desc>Created with sketchtool.</desc>
    <g id="Documentation" stroke="none" stroke-width="1" fill="none" fill-rule="evenodd">
        <g id="Infrastructure-and-Events:-Behviours-&amp;-Guidelines" transform="translate(-237.000000, -121.000000)">
            <g id="Icons" transform="translate(93.000000, 121.000000)">
                <g id="Maximize-Copy" transform="translate(144.000000, 0.000000)"></g>
                <g id="Group-5" transform="translate(148.000000, 4.000000)" fill="#000000">
                    <path d="M6,12 C2.6862915,12 0,9.3137085 0,6 C0,2.6862915 2.6862915,0 6,0 C9.3137085,0 12,2.6862915 12,6 C12,9.3137085 9.3137085,12 6,12 Z M6,10 C8.209139,10 10,8.209139 10,6 C10,3.790861 8.209139,2 6,2 C3.790861,2 2,3.790861 2,6 C2,8.209139 3.790861,10 6,10 Z" id="Oval-2"></path>
                    <path d="M9.64673169,9.24153928 L15,14" id="Path-4" stroke="#000000" stroke-width="2"></path>
                </g>
            </g>
        </g>
    </g>
</svg>