<?xml version="1.0" encoding="UTF-8"?>
<svg width="192px" height="24px" viewBox="0 0 192 24" version="1.1" xmlns="http://www.w3.org/2000/svg" xmlns:xlink="http://www.w3.org/1999/xlink">
    <!-- Generator: Sketch 52.6 (67491) - http://www.bohemiancoding.com/sketch -->
    <title>gd-design-logo</title>
    <desc>Created with Sketch.</desc>
    <g id="Logo" stroke="none" stroke-width="1" fill="none" fill-rule="evenodd">
        <g id="gd-design-logo">
            <g id="GD-logo">
                <g id="Fill-1-Clipped" transform="translate(31.000000, 8.000000)" fill="#FFFFFF">
                    <path d="M6.1077953,10.3430326 C6.5788651,10.3430326 6.9918884,10.2994977 7.3418419,10.2146605 C7.6906791,10.1292651 8.0244465,10.0114977 8.342586,9.8602419 L8.342586,7.812986 L6.9321674,7.812986 C6.7976558,7.812986 6.6899349,7.7755907 6.6134698,7.7019163 C6.5353302,7.6243349 6.4957023,7.5328 6.4957023,7.4239628 L6.4957023,6.2384744 L10.2436093,6.2384744 L10.2436093,10.7945674 C9.9561674,11.0038698 9.6592372,11.1824744 9.3517023,11.3370791 C9.042493,11.488893 8.7131907,11.6183814 8.3621209,11.7143814 C8.0110512,11.812614 7.6337488,11.8879628 7.2369116,11.9365209 C6.8384,11.9856372 6.4064,12.0096372 5.9420279,12.0096372 C5.1221209,12.0096372 4.3680744,11.8678698 3.6770977,11.5826605 C2.9855628,11.2957767 2.3883535,10.9000558 1.8826791,10.3888 C1.3809116,9.8831256 0.9885395,9.2736372 0.7050047,8.5681488 C0.4214698,7.8643349 0.2813767,7.0913116 0.2813767,6.2552186 C0.2813767,5.4079628 0.4197953,4.6299163 0.6944,3.9255442 C0.9690047,3.2178233 1.3591442,2.6105674 1.8670512,2.1026605 C2.3710512,1.59363721 2.9855628,1.19903256 3.7072372,0.91884651 C4.4289116,0.63754419 5.2410047,0.4980093 6.1362605,0.4980093 C7.0560744,0.4980093 7.8519814,0.63531163 8.5256558,0.90824186 C9.198214,1.18061395 9.7664,1.53503256 10.2341209,1.97093953 L9.6268651,2.9203349 C9.5090977,3.1123349 9.3517023,3.2083349 9.1513302,3.2083349 C9.0251907,3.2083349 8.9007256,3.1681488 8.7717953,3.0838698 C8.6043535,2.9845209 8.4341209,2.8879628 8.2616558,2.7897302 C8.0875163,2.6892651 7.8955163,2.6044279 7.6817488,2.5313116 C7.4746791,2.4581953 7.2369116,2.3984744 6.9757023,2.3515907 C6.7139349,2.304707 6.4119814,2.2840558 6.066493,2.2840558 C5.510586,2.2840558 5.0088186,2.3755907 4.5589581,2.5631256 C4.1107721,2.7484279 3.7290047,3.0152186 3.4130977,3.3651721 C3.0949581,3.712893 2.850493,4.1292651 2.6780279,4.6176372 C2.5083535,5.1060093 2.4229581,5.6513116 2.4229581,6.2552186 C2.4229581,6.9037767 2.5150512,7.4825674 2.6958884,7.9904744 C2.8767256,8.4922419 3.1317953,8.9225674 3.4588651,9.2691721 C3.7881674,9.616893 4.1760744,9.8831256 4.626493,10.0673116 C5.078586,10.2514977 5.5736558,10.3430326 6.1077953,10.3430326 Z" id="Fill-1"></path>
                </g>
                <g id="Fill-3-Clipped" transform="translate(42.000000, 11.000000)" fill="#FFFFFF">
                    <path d="M0.9769674,8.8855628 L0.9769674,0.8952372 L2.1060837,0.8952372 C2.3025488,0.8952372 2.4398512,0.9309581 2.5185488,1.0040744 C2.5966884,1.0760744 2.6491535,1.2010977 2.675386,1.3769116 L2.7909209,2.3447256 C3.0766884,1.8507721 3.4121302,1.4595163 3.7938977,1.174307 C4.1795721,0.8885395 4.6115721,0.7456558 5.0887814,0.7456558 C5.483386,0.7456558 5.8093395,0.8371907 6.0722233,1.0180279 L5.8205023,2.4602605 C5.8037581,2.5540279 5.771386,2.618214 5.7211535,2.6589581 C5.6664558,2.6980279 5.5989209,2.7153302 5.5096186,2.7153302 C5.4309209,2.7153302 5.3243163,2.6991442 5.1914791,2.6634233 C5.0541767,2.6249116 4.8761302,2.6087256 4.6528744,2.6087256 C4.2538047,2.6087256 3.9116651,2.7186791 3.6247814,2.9380279 C3.3378977,3.1590512 3.0984558,3.4827721 2.8997581,3.9091907 L2.8997581,8.8855628 L0.9769674,8.8855628 Z" id="Fill-3"></path>
                </g>
                <g id="Fill-5-Clipped" transform="translate(48.000000, 8.000000)" fill="#FFFFFF" fill-rule="nonzero">
                    <path d="M1.0989767,11.885786 L3.024,11.885786 L3.024,3.8954605 L1.0989767,3.8954605 L1.0989767,11.885786 Z M3.3097674,1.56522791 C3.3097674,1.73211163 3.2779535,1.88783256 3.2104186,2.0340651 C3.1428837,2.1780651 3.0546977,2.3047628 2.9436279,2.4158326 C2.8303256,2.5235535 2.6980465,2.6106233 2.5501395,2.6764837 C2.3983256,2.7406698 2.2370233,2.7730419 2.0651163,2.7730419 C1.8993488,2.7730419 1.7430698,2.7406698 1.5951628,2.6764837 C1.4466977,2.6106233 1.3172093,2.5235535 1.2089302,2.4158326 C1.0989767,2.3047628 1.0152558,2.1780651 0.9488372,2.0340651 C0.8829767,1.88783256 0.8506047,1.73211163 0.8506047,1.56522791 C0.8506047,1.39332093 0.8829767,1.23313488 0.9488372,1.08578605 C1.0152558,0.93229767 1.0989767,0.80225116 1.2089302,0.69229767 C1.3172093,0.58346047 1.4466977,0.49583256 1.5951628,0.43053023 C1.7430698,0.36522791 1.8993488,0.33564651 2.0651163,0.33564651 C2.2370233,0.33564651 2.3983256,0.36522791 2.5501395,0.43053023 C2.6980465,0.49583256 2.8303256,0.58346047 2.9436279,0.69229767 C3.0546977,0.80225116 3.1428837,0.93229767 3.2104186,1.08578605 C3.2779535,1.23313488 3.3097674,1.39332093 3.3097674,1.56522791 Z" id="Fill-5"></path>
                </g>
                <g id="Fill-7-Clipped" transform="translate(52.000000, 8.000000)" fill="#FFFFFF" fill-rule="nonzero">
                    <path d="M4.0016558,10.4760372 C4.4007256,10.4760372 4.7406326,10.3945488 5.0197023,10.2265488 C5.3010047,10.0618977 5.5650047,9.8263628 5.8156093,9.5165953 L5.8156093,5.9355721 C5.5973767,5.671014 5.3601674,5.4823628 5.1017488,5.3740837 C4.8455628,5.2641302 4.5676093,5.2105488 4.2695628,5.2105488 C3.9798884,5.2105488 3.7181209,5.2641302 3.482586,5.3740837 C3.2453767,5.4823628 3.0466791,5.647014 2.8809116,5.8680372 C2.7173767,6.0918512 2.5934698,6.3698047 2.5036093,6.7108279 C2.4176558,7.0507349 2.3707721,7.4509209 2.3707721,7.9141767 C2.3707721,8.3818977 2.4098419,8.7765023 2.4840744,9.1002233 C2.5605395,9.4284093 2.6682605,9.6901767 2.8066791,9.895014 C2.946214,10.1009674 3.1186791,10.2494326 3.3212837,10.3398512 C3.5244465,10.4291535 3.7510512,10.4760372 4.0016558,10.4760372 Z M6.5635163,11.8853395 C6.3129116,11.8853395 6.1516093,11.7709209 6.0729116,11.5342698 L5.9138419,10.7640372 C5.7480744,10.9493395 5.5756093,11.1212465 5.3925395,11.2708279 C5.2117023,11.4198512 5.0152372,11.5498977 4.8081674,11.6587349 C4.5966326,11.7709209 4.3677953,11.8529674 4.1283535,11.9149209 C3.8883535,11.9729674 3.626586,12.0008744 3.3452837,12.0008744 C2.9093767,12.0008744 2.5091907,11.9126884 2.1452837,11.7318512 C1.7819349,11.5498977 1.4682605,11.2836651 1.206493,10.9404093 C0.9447256,10.5938047 0.7421209,10.1685023 0.6003535,9.6572465 C0.4563535,9.1493395 0.3849116,8.5683163 0.3849116,7.9141767 C0.3849116,7.3214326 0.4652837,6.7716651 0.626586,6.2648744 C0.7878884,5.7547349 1.0178419,5.3121302 1.3197953,4.9404093 C1.6184,4.5642233 1.9828651,4.2712 2.4014698,4.0607814 C2.822307,3.8537116 3.2939349,3.7454326 3.8208186,3.7454326 C4.2678884,3.7454326 4.6490977,3.8185488 4.9633302,3.9592 C5.2814698,4.1043163 5.5650047,4.2940837 5.8156093,4.5329674 L5.8156093,0.31175814 L7.7361674,0.31175814 L7.7361674,11.8853395 L6.5635163,11.8853395 Z" id="Fill-7"></path>
                </g>
                <g id="Fill-8-Clipped" transform="translate(65.000000, 8.000000)" fill="#FFFFFF" fill-rule="nonzero">
                    <path d="M8.5830512,6.2529302 C8.5830512,5.6350698 8.5004465,5.0797209 8.3324465,4.5891163 C8.1689116,4.100186 7.9311442,3.6843721 7.6236093,3.3433488 C7.318307,3.0034419 6.946586,2.7416744 6.5073302,2.5630698 C6.0669581,2.3811163 5.5741209,2.2890233 5.0226791,2.2890233 L2.8336558,2.2890233 L2.8336558,10.2179535 L5.0226791,10.2179535 C5.5741209,10.2179535 6.0669581,10.1269767 6.5073302,9.9461395 C6.946586,9.7630698 7.318307,9.5013023 7.6236093,9.1613953 C7.9311442,8.8242791 8.1689116,8.4056744 8.3324465,7.9156279 C8.5004465,7.4255814 8.5830512,6.8707907 8.5830512,6.2529302 M10.7229581,6.2529302 C10.7229581,7.0789767 10.5845395,7.8369302 10.3121674,8.527907 C10.0370047,9.2177674 9.6490977,9.8144186 9.1529116,10.3111628 C8.6539349,10.811814 8.0533767,11.1974884 7.3512372,11.472093 C6.6490977,11.7472558 5.8732837,11.8856744 5.0226791,11.8856744 L0.7244465,11.8856744 L0.7244465,0.62353488 L5.0226791,0.62353488 C5.8732837,0.62353488 6.6490977,0.76195349 7.3512372,1.0387907 C8.0533767,1.31786047 8.6539349,1.70409302 9.1529116,2.1997209 C9.6490977,2.695907 10.0370047,3.2897674 10.3121674,3.9779535 C10.5845395,4.6700465 10.7229581,5.4274419 10.7229581,6.2529302" id="Fill-8"></path>
                </g>
                <g id="Fill-9-Clipped" transform="translate(76.000000, 11.000000)" fill="#FFFFFF">
                    <path d="M4.0169488,11.0810605 C3.9600186,11.2172465 3.8841116,11.3188279 3.7925767,11.3897116 C3.7038326,11.4583628 3.5637395,11.4963163 3.3778791,11.4963163 L1.9434605,11.4963163 L3.4392744,8.2914791 L0.2082047,0.8938977 L1.8887628,0.8938977 C2.0461581,0.8938977 2.1639256,0.9290605 2.2465302,1.0016186 C2.3313674,1.0758512 2.3927628,1.1578977 2.4340651,1.2527814 L4.141414,5.3947349 C4.197786,5.5314791 4.245786,5.6721302 4.2893209,5.8144558 C4.3300651,5.9618047 4.3680186,6.1069209 4.3964837,6.2542698 C4.4400186,6.1002233 4.4835535,5.9562233 4.5349023,5.8144558 C4.5840186,5.6760372 4.633693,5.5325953 4.6939721,5.3874791 L6.2986233,1.2527814 C6.3388093,1.1478512 6.4085767,1.0641302 6.5068093,0.9932465 C6.6005767,0.9279442 6.709414,0.8938977 6.8271814,0.8938977 L8.3709953,0.8938977 L4.0169488,11.0810605 Z" id="Fill-9"></path>
                </g>
                <g id="Fill-10-Clipped" transform="translate(85.000000, 11.000000)" fill="#FFFFFF">
                    <path d="M0.2690977,8.8855628 L0.2690977,0.8941209 L1.4439814,0.8941209 C1.6951442,0.8941209 1.8609116,1.0096558 1.934586,1.2429581 L2.070214,1.8747721 C2.2292837,1.7106791 2.3989581,1.5566326 2.5781209,1.4249116 C2.7578419,1.2876093 2.946493,1.1731907 3.1468651,1.0716093 C3.3477953,0.974493 3.5593302,0.8991442 3.7881674,0.8483535 C4.0170047,0.7936558 4.2676093,0.7696558 4.5377488,0.7696558 C4.974214,0.7696558 5.3598884,0.8427721 5.6981209,0.9906791 C6.0357953,1.1391442 6.3170977,1.346214 6.5437023,1.6135628 C6.7686326,1.8837023 6.9405395,2.2018419 7.0571907,2.5735628 C7.1738419,2.9436093 7.2330047,3.3521674 7.2330047,3.8003535 L7.2330047,8.8855628 L5.3096558,8.8855628 L5.3096558,3.8003535 C5.3096558,3.3108651 5.1963535,2.9324465 4.9697488,2.6650977 C4.7453767,2.398307 4.4049116,2.2643535 3.9539349,2.2643535 C3.6212837,2.2643535 3.3081674,2.3402605 3.0196093,2.4887256 C2.7282605,2.6410977 2.4536558,2.846493 2.1918884,3.1060279 L2.1918884,8.8855628 L0.2690977,8.8855628 Z" id="Fill-10"></path>
                </g>
                <g id="Fill-11-Clipped" transform="translate(93.000000, 11.000000)" fill="#FFFFFF" fill-rule="nonzero">
                    <path d="M3.3381767,7.6853395 C3.5346419,7.6853395 3.7177116,7.6691535 3.8834791,7.6328744 C4.0486884,7.5960372 4.2060837,7.5424558 4.3539907,7.4693395 C4.5024558,7.3995721 4.6464558,7.3102698 4.7837581,7.207014 C4.9210605,7.1009674 5.0605953,6.9787349 5.1978977,6.8341767 L5.1978977,5.4974326 C4.6375256,5.4974326 4.1709209,5.5314791 3.7936186,5.6034791 C3.419107,5.6732465 3.1160372,5.7625488 2.8866419,5.8747349 C2.6578047,5.9835721 2.4965023,6.111386 2.4005023,6.2581767 C2.3045023,6.4044093 2.2570605,6.5634791 2.2570605,6.7348279 C2.2570605,7.0758512 2.3558512,7.3203163 2.5556651,7.467107 C2.7549209,7.6122233 3.0166884,7.6853395 3.3381767,7.6853395 Z M7.079386,8.8853395 L6.2125953,8.8853395 C6.0284093,8.8853395 5.8888744,8.8585488 5.7845023,8.8038512 C5.6795721,8.7480372 5.6036651,8.6380837 5.5489674,8.4723163 L5.3787349,7.9035721 C5.1761302,8.0855256 4.9796651,8.2468279 4.7837581,8.3818977 C4.5895256,8.5214326 4.3869209,8.6347349 4.1798512,8.7318512 C3.9716651,8.823386 3.7500837,8.8920372 3.519014,8.9389209 C3.2834791,8.9858047 3.0245023,9.0098047 2.7387349,9.0098047 C2.4005023,9.0098047 2.0890605,8.9640372 1.8055256,8.8725023 C1.5197581,8.7798512 1.271386,8.6458977 1.0665488,8.4628279 C0.863386,8.2792 0.7020837,8.0537116 0.5887814,7.7824558 C0.4732465,7.5117581 0.4168744,7.1969674 0.4168744,6.8364093 C0.4168744,6.5361302 0.4972465,6.2364093 0.6540837,5.9400372 C0.815386,5.6481302 1.0749209,5.3818977 1.4466419,5.1441302 C1.8161302,4.9074791 2.3045023,4.7115721 2.9195721,4.5558512 C3.5324093,4.3995721 4.2898047,4.3203163 5.1978977,4.3203163 L5.1978977,3.8503628 C5.1978977,3.3106419 5.0845953,2.9126884 4.8618977,2.6531535 C4.635293,2.3930605 4.3059907,2.2641302 3.8745488,2.2641302 C3.5647814,2.2641302 3.3052465,2.3015256 3.0981767,2.3740837 C2.8888744,2.4472 2.7091535,2.5281302 2.5556651,2.6185488 C2.4005023,2.7100837 2.2609674,2.7904558 2.1325953,2.8646884 C2.0014326,2.9366884 1.8568744,2.9757581 1.7028279,2.9757581 C1.571107,2.9757581 1.4611535,2.9378047 1.3696186,2.8725023 C1.2736186,2.8060837 1.199386,2.7218047 1.1424558,2.623014 L0.7919442,2.0079442 C1.7117581,1.1662698 2.819107,0.7454326 4.1167814,0.7454326 C4.5828279,0.7454326 5.0014326,0.8218977 5.3681302,0.9759442 C5.7365023,1.1283163 6.0462698,1.3409674 6.2968744,1.6133395 C6.5519442,1.8890605 6.7439442,2.2105488 6.879014,2.5934326 C7.011851,2.9707349 7.079386,3.3859907 7.079386,3.8392 L7.079386,8.8853395 Z" id="Fill-11"></path>
                </g>
                <g id="Fill-12-Clipped" transform="translate(101.000000, 11.000000)" fill="#FFFFFF">
                    <path d="M0.762567,8.8855628 L0.762567,0.8941209 L1.935777,0.8941209 C2.186381,0.8941209 2.347684,1.0096558 2.425823,1.2429581 L2.552521,1.8379349 C2.689823,1.6788651 2.838288,1.538214 2.992893,1.4076093 C3.145823,1.2775628 3.308242,1.166493 3.481265,1.0716093 C3.655963,0.9778419 3.841265,0.9047256 4.041637,0.850586 C4.244242,0.7970047 4.462474,0.7696558 4.700242,0.7696558 C5.203684,0.7696558 5.620056,0.9047256 5.944893,1.1759814 C6.26973,1.4489116 6.511963,1.8139349 6.671033,2.2643535 C6.79773,1.9992372 6.952335,1.7715163 7.140986,1.5839814 C7.327405,1.3919814 7.532242,1.238493 7.754381,1.1196093 C7.979312,0.9996093 8.214847,0.9125395 8.467684,0.8556093 C8.718288,0.7981209 8.971126,0.7696558 9.226195,0.7696558 C9.667684,0.7696558 10.061172,0.8371907 10.401637,0.9722605 C10.743777,1.1056558 11.032335,1.3049116 11.266753,1.5644465 C11.502288,1.8228651 11.679219,2.1410047 11.800893,2.5138419 C11.923126,2.8877953 11.982288,3.3158884 11.982288,3.8003535 L11.982288,8.8855628 L10.061172,8.8855628 L10.061172,3.8003535 C10.061172,3.2890977 9.94787,2.906214 9.724614,2.6489116 C9.5008,2.3916093 9.17373,2.2643535 8.742288,2.2643535 C8.545823,2.2643535 8.362753,2.2989581 8.194753,2.366493 C8.025079,2.4317953 7.876614,2.5311442 7.750474,2.6578419 C7.623777,2.7839814 7.523312,2.9441674 7.451312,3.1350512 C7.375405,3.3292837 7.342474,3.5491907 7.342474,3.8003535 L7.342474,8.8855628 L5.408521,8.8855628 L5.408521,3.8003535 C5.408521,3.2650977 5.301916,2.8738419 5.088149,2.630493 C4.869916,2.3854698 4.554009,2.2643535 4.133172,2.2643535 C3.856335,2.2643535 3.599033,2.3341209 3.3568,2.4714233 C3.116242,2.6087256 2.892428,2.7973767 2.682009,3.0351442 L2.682009,8.8855628 L0.762567,8.8855628 Z" id="Fill-12"></path>
                </g>
                <g id="Fill-13-Clipped" transform="translate(114.000000, 8.000000)" fill="#FFFFFF" fill-rule="nonzero">
                    <path d="M0.689302,11.885786 L2.614326,11.885786 L2.614326,3.8943442 L0.689302,3.8943442 L0.689302,11.885786 Z M2.901209,1.56299535 C2.901209,1.73211163 2.869395,1.88783256 2.80186,2.0307163 C2.734326,2.1780651 2.645023,2.3047628 2.533395,2.4124837 C2.420093,2.5235535 2.291721,2.6083907 2.141023,2.6731349 C1.988651,2.7384372 1.827349,2.7708093 1.657116,2.7708093 C1.490233,2.7708093 1.332279,2.7384372 1.186047,2.6731349 C1.040372,2.6083907 0.906977,2.5235535 0.800372,2.4124837 C0.689302,2.3047628 0.602791,2.1780651 0.538605,2.0307163 C0.473302,1.88783256 0.440372,1.73211163 0.440372,1.56299535 C0.440372,1.39332093 0.473302,1.2320186 0.538605,1.08132093 C0.602791,0.93229767 0.689302,0.80225116 0.800372,0.69229767 C0.906977,0.58346047 1.040372,0.49583256 1.186047,0.43053023 C1.332279,0.36522791 1.490233,0.33453023 1.657116,0.33453023 C1.827349,0.33453023 1.988651,0.36522791 2.141023,0.43053023 C2.291721,0.49583256 2.420093,0.58346047 2.533395,0.69229767 C2.645023,0.80225116 2.734326,0.93229767 2.80186,1.08132093 C2.869395,1.2320186 2.901209,1.39332093 2.901209,1.56299535 Z" id="Fill-13"></path>
                </g>
                <g id="Fill-14-Clipped" transform="translate(117.000000, 11.000000)" fill="#FFFFFF">
                    <path d="M7.103442,2.582493 C7.046512,2.6578419 6.99014,2.714214 6.935442,2.7549581 C6.881302,2.7973767 6.800372,2.8169116 6.697674,2.8169116 C6.597767,2.8169116 6.504,2.7873302 6.410233,2.7276093 C6.318698,2.6673302 6.205395,2.6009116 6.074233,2.5255628 C5.94586,2.4496558 5.791814,2.3832372 5.614326,2.3229581 C5.433488,2.2621209 5.210791,2.2314233 4.945116,2.2314233 C4.606884,2.2314233 4.310512,2.294493 4.057674,2.4156093 C3.804837,2.5378419 3.59107,2.714214 3.42307,2.9413767 C3.253395,3.170214 3.12893,3.4481674 3.045767,3.7718884 C2.959814,4.0956093 2.919628,4.4650977 2.919628,4.8736558 C2.919628,5.2978419 2.965395,5.6818419 3.05693,6.0100279 C3.148465,6.3443535 3.277395,6.6234233 3.44707,6.8494698 C3.620651,7.0760744 3.83107,7.2457488 4.072744,7.3618419 C4.317209,7.4773767 4.591814,7.5370977 4.899349,7.5370977 C5.206884,7.5370977 5.451907,7.5002605 5.642791,7.4237953 C5.832558,7.3484465 5.991628,7.2658419 6.12,7.174307 C6.251163,7.0833302 6.364465,7.0018419 6.460465,6.9276093 C6.55814,6.8500279 6.66307,6.814307 6.785302,6.814307 C6.937674,6.814307 7.057674,6.8729116 7.135256,6.9917953 L7.687814,7.6928186 C7.474047,7.9434233 7.242977,8.1510512 6.994605,8.3196093 C6.743442,8.4887256 6.484465,8.6249116 6.218233,8.7231442 C5.950326,8.8275163 5.675163,8.9006326 5.389953,8.9391442 C5.104186,8.9815628 4.820651,9.0010977 4.539349,9.0010977 C4.046512,9.0010977 3.58214,8.9095628 3.146233,8.7231442 C2.708093,8.5411907 2.328558,8.2727256 2.003721,7.9199814 C1.681116,7.5655628 1.421581,7.1335628 1.234047,6.6234233 C1.044837,6.1110512 0.95107,5.5277953 0.95107,4.8736558 C0.95107,4.2853767 1.033674,3.7434233 1.203907,3.2433302 C1.371349,2.7393302 1.619163,2.3067721 1.945116,1.9406326 C2.274419,1.5761674 2.679628,1.2876093 3.16186,1.0816558 C3.645767,0.8723535 4.200558,0.7696558 4.829581,0.7696558 C5.424558,0.7696558 5.948093,0.8634233 6.39907,1.0565395 C6.848372,1.2490977 7.251907,1.5248186 7.609116,1.8837023 L7.103442,2.582493 Z" id="Fill-14"></path>
                </g>
                <g id="Fill-15-Clipped" transform="translate(125.000000, 11.000000)" fill="#FFFFFF">
                    <path d="M5.721526,2.4494884 C5.66906,2.5332093 5.614921,2.5934884 5.557991,2.6269767 C5.499386,2.6621395 5.429619,2.6772093 5.339758,2.6772093 C5.245991,2.6772093 5.146084,2.6509767 5.038921,2.6007442 C4.932316,2.5488372 4.812316,2.4885581 4.668316,2.4243721 C4.528781,2.3590698 4.369712,2.3010233 4.191107,2.248 C4.01027,2.1977674 3.800967,2.1715349 3.556502,2.1715349 C3.176967,2.1715349 2.878363,2.251907 2.660688,2.4126512 C2.444688,2.5739535 2.333619,2.7832558 2.333619,3.0444651 C2.333619,3.2146977 2.385526,3.3586977 2.50106,3.4753488 C2.610456,3.5908837 2.760595,3.6946977 2.945898,3.7851163 C3.128967,3.8710698 3.33827,3.9547907 3.571572,4.0195349 C3.802642,4.0909767 4.042642,4.1674419 4.28934,4.2517209 C4.531014,4.3354419 4.771014,4.4269767 5.006549,4.5346977 C5.237619,4.6396279 5.444688,4.775814 5.632223,4.9393488 C5.815293,5.1028837 5.963758,5.2982326 6.074828,5.528186 C6.18813,5.7570233 6.244502,6.0316279 6.244502,6.3542326 C6.244502,6.7382326 6.170828,7.092093 6.031293,7.4180465 C5.893991,7.7423256 5.688595,8.0213953 5.416223,8.2586047 C5.146084,8.4941395 4.812316,8.6805581 4.415479,8.8117209 C4.018642,8.9423256 3.5632,9.0098605 3.050828,9.0098605 C2.776223,9.0098605 2.505526,8.9858605 2.244316,8.9333953 C1.980316,8.8853953 1.729712,8.8167442 1.487479,8.731907 C1.245247,8.6414884 1.020874,8.5376744 0.81827,8.4187907 C0.616781,8.2993488 0.435386,8.1693023 0.278549,8.0275349 L0.721153,7.2952558 C0.778084,7.2070698 0.844502,7.140093 0.922642,7.0932093 C1.00134,7.0452093 1.099572,7.0212093 1.219572,7.0212093 C1.33734,7.0212093 1.450642,7.0574884 1.555014,7.123907 C1.663851,7.1925581 1.788316,7.2656744 1.927851,7.3432558 C2.069619,7.4191628 2.233153,7.4933953 2.422921,7.5609302 C2.610456,7.6284651 2.849898,7.6625116 3.144595,7.6625116 C3.3712,7.6625116 3.565433,7.6351628 3.7312,7.5793488 C3.894735,7.5263256 4.029805,7.4532093 4.136409,7.363907 C4.243572,7.2773953 4.319479,7.1741395 4.369712,7.0574884 C4.419944,6.9408372 4.443944,6.8197209 4.443944,6.6963721 C4.443944,6.5093953 4.387014,6.3553488 4.275944,6.2364651 C4.164874,6.1164651 4.016409,6.0132093 3.83334,5.923907 C3.648037,5.8373953 3.436502,5.7581395 3.200967,5.6894884 C2.963758,5.6163721 2.723758,5.5410233 2.475386,5.4584186 C2.230921,5.3763721 1.987014,5.2764651 1.753712,5.1659535 C1.515944,5.0526512 1.304409,4.912 1.12134,4.7412093 C0.93827,4.5698605 0.790921,4.3594419 0.679851,4.1099535 C0.564316,3.859907 0.509619,3.5613023 0.509619,3.208 C0.509619,2.879814 0.574921,2.5683721 0.704967,2.272 C0.83334,1.976186 1.02534,1.7183256 1.278177,1.4967442 C1.528781,1.2768372 1.843014,1.099907 2.220316,0.9693023 C2.59706,0.8342326 3.031293,0.7694884 3.525805,0.7694884 C4.075572,0.7694884 4.574549,0.8587907 5.028316,1.0413023 C5.477619,1.2232558 5.854363,1.4632558 6.157433,1.7585116 L5.721526,2.4494884 Z" id="Fill-15"></path>
                </g>
                <g id="Group-8-Clipped">
                    <g id="Group-8">
                        <path d="M23.6805767,12.1669953 C22.417507,6.18541395 15.7421581,0.557134884 11.1637395,0.0386232558 L11.1637395,0.0391813953 C10.7920186,0.275274419 10.4828093,0.570530233 10.2333209,0.915460465 C12.9006698,1.16271628 15.2292279,2.94653023 17.9043907,5.81090233 C19.9823442,8.03787907 21.3721116,11.5943442 21.7131349,15.341693 C21.8504372,16.8246698 21.821414,18.3366698 21.6109953,19.8090419 C23.7553674,17.4598326 24.2331349,14.7796465 23.6805767,12.1669953" id="Fill-16" fill="#F29100"></path>
                        <path d="M21.713414,15.3419721 C21.8507163,16.8243907 21.821693,18.3363907 21.6107163,19.8093209 C19.1738791,22.5564837 10.7638326,23.9155535 5.42522791,23.5270884 L5.42522791,23.5248558 C4.61871628,22.3773209 4.20792558,21.1103442 4.10355349,19.7830884 C10.8871814,21.0511814 18.1502512,19.0005767 21.713414,15.3419721" id="Fill-17" fill="#EA5B25"></path>
                        <path d="M16.6220651,6.74584186 C18.1876465,9.23737674 17.873414,13.7281674 16.1303442,16.3190512 L15.9076465,16.2649116 C14.7394605,15.7681674 13.553414,14.6178419 12.5186233,13.1410047 C16.0131349,8.90193488 14.077507,5.68202791 11.6317395,5.02230698 C10.901693,4.82305116 10.1269953,4.8531907 9.43657674,5.15346977 C11.7846698,4.03495814 14.8918326,4.18063256 16.6220651,6.74584186" id="Fill-18" fill="#0069B3"></path>
                        <path d="M9.4368,5.15369302 C10.1266605,4.85341395 10.9013581,4.82271628 11.6319628,5.02253023 C11.0180093,5.59741395 10.3750326,6.25992558 9.73652093,6.98997209 C9.58414884,6.36987907 9.47642791,5.7576 9.4155907,5.16373953 L9.4155907,5.16206512 C9.42452093,5.15871628 9.42898605,5.15536744 9.4368,5.15369302" id="Fill-19" fill="#A9AA00"></path>
                        <path d="M15.9077581,16.2647442 C14.7395721,15.768 13.5535256,14.6176744 12.5187349,13.1408372 C11.2802233,11.3765581 10.2560372,9.14009302 9.7364093,6.99013953 C9.58403721,6.36948837 9.47631628,5.75776744 9.41603721,5.16334884 L9.41603721,5.16167442 C9.24413023,3.48390698 9.46571163,1.968 10.2331535,0.915348837 C10.4832,0.570418605 10.7918512,0.275162791 11.1635721,0.039627907 L11.1635721,0.0385116279 C9.77938605,-0.117209302 8.58552558,0.192 7.79408372,1.10344186 L7.79017674,1.10344186 C7.1896186,1.79274419 6.81566512,2.82474419 6.76375814,4.25860465 C6.66664186,4.99255814 6.59408372,6.03906977 6.58068837,7.23627907 C6.56952558,8.40613953 6.61975814,9.71609302 6.76487442,11.0266047 C7.31631628,15.9906977 9.2536186,20.9196279 14.5732465,17.8448372 C15.1754791,17.4948837 15.6978977,16.9646512 16.1304558,16.3194419 L15.9077581,16.2647442 Z" id="Fill-20" fill="#62B8E8"></path>
                        <path d="M4.10372093,19.7830884 C3.88102326,16.9371349 5.06706977,13.8154605 6.76493023,11.0269953 C6.61981395,9.71592558 6.5695814,8.40597209 6.58074419,7.23666977 C3.79172093,9.82420465 0.441209302,14.8245767 0.0399069767,18.5959256 C-0.169395349,20.561693 0.423348837,22.1914605 2.31990698,22.9706233 C3.11302326,23.2536 4.18632558,23.4366698 5.42539535,23.5270884 L5.42539535,23.5248558 C4.61832558,22.3773209 4.20753488,21.1103442 4.10372093,19.7830884" id="Fill-21" fill="#A9AA00"></path>
                    </g>
                </g>
            </g>
            <g id="Design" transform="translate(138.000000, 0.000000)" fill="#FFFFFF" font-family="Futura-Bold, Futura" font-size="15" font-weight="bold">
                <text>
                    <tspan x="0" y="20">Design</tspan>
                </text>
            </g>
            <rect id="Rectangle" fill="#FF8700" x="135" y="8" width="1" height="15"></rect>
        </g>
    </g>
</svg>